<svg xmlns="http://www.w3.org/2000/svg" viewBox="0 0 64 64" width="64" height="64">
  <defs>
    <radialGradient id="bg" cx="50%" cy="50%" r="60%">
      <stop offset="0%" stop-color="#1b1140"/>
      <stop offset="100%" stop-color="#05030f"/>
    </radialGradient>
    <radialGradient id="core" cx="50%" cy="50%" r="50%">
      <stop offset="0%" stop-color="#ffffff"/>
      <stop offset="35%" stop-color="#e9c8ff"/>
      <stop offset="70%" stop-color="#a855f7"/>
      <stop offset="100%" stop-color="#a855f7" stop-opacity="0"/>
    </radialGradient>
    <linearGradient id="arm" x1="0%" y1="0%" x2="100%" y2="100%">
      <stop offset="0%" stop-color="#d8b4ff"/>
      <stop offset="55%" stop-color="#8b5cf6"/>
      <stop offset="100%" stop-color="#ec4899"/>
    </linearGradient>
  </defs>

  <circle cx="32" cy="32" r="32" fill="url(#bg)"/>

  <!-- Brazos espirales -->
  <g fill="none" stroke="url(#arm)" stroke-linecap="round" opacity="0.95">
    <path d="M32 32 C 44 26, 52 34, 48 46 C 44 56, 30 56, 22 48" stroke-width="4"/>
    <path d="M32 32 C 20 38, 12 30, 16 18 C 20 8, 34 8, 42 16" stroke-width="4"/>
  </g>
  <g fill="none" stroke="#ffffff" stroke-linecap="round" opacity="0.5">
    <path d="M32 32 C 42 28, 49 34, 46 44" stroke-width="1.5"/>
    <path d="M32 32 C 22 36, 15 30, 18 20" stroke-width="1.5"/>
  </g>

  <!-- Núcleo -->
  <circle cx="32" cy="32" r="11" fill="url(#core)"/>
  <circle cx="32" cy="32" r="3.5" fill="#ffffff"/>

  <!-- Estrellas -->
  <circle cx="14" cy="50" r="1.1" fill="#fff"/>
  <circle cx="52" cy="16" r="1.1" fill="#fff"/>
  <circle cx="50" cy="50" r="0.9" fill="#d8b4ff"/>
  <circle cx="15" cy="16" r="0.9" fill="#fff"/>
  <circle cx="44" cy="10" r="0.7" fill="#bcd4ff"/>
</svg>
